<?xml version="1.0" encoding="us-ascii" standalone="no"?><svg xmlns="http://www.w3.org/2000/svg" xmlns:xlink="http://www.w3.org/1999/xlink" contentStyleType="text/css" height="585px" preserveAspectRatio="none" style="width:5951px;height:585px;background:#FFFFFF;" version="1.1" viewBox="0 0 5951 585" width="5951px" zoomAndPan="magnify"><defs/><g><text fill="#000000" font-family="sans-serif" font-size="14" font-weight="bold" lengthAdjust="spacing" textLength="174" x="2881.75" y="22.9951">Constraint - Hierarchy</text><!--class Constraint--><g id="elem_Constraint"><rect codeLine="4" fill="#F1F1F1" height="145.7813" id="Constraint" rx="2.5" ry="2.5" style="stroke:#181818;stroke-width:0.5;" width="337" x="2777" y="44.2969"/><ellipse cx="2906.25" cy="60.2969" fill="#A9DCDF" rx="11" ry="11" style="stroke:#181818;stroke-width:1.0;"/><path d="M2906.3594,55.6406 L2905.2031,60.7188 L2907.5313,60.7188 L2906.3594,55.6406 Z M2904.875,53.4063 L2907.8594,53.4063 L2911.2188,65.7969 L2908.7656,65.7969 L2908,62.7344 L2904.7188,62.7344 L2903.9688,65.7969 L2901.5313,65.7969 L2904.875,53.4063 Z " fill="#000000"/><text fill="#000000" font-family="sans-serif" font-size="14" font-style="italic" lengthAdjust="spacing" textLength="70" x="2926.75" y="65.1436">Constraint</text><line style="stroke:#181818;stroke-width:0.5;" x1="2778" x2="3113" y1="76.2969" y2="76.2969"/><ellipse cx="2788" cy="89.9453" fill="none" rx="3" ry="3" style="stroke:#038048;stroke-width:1.0;"/><text fill="#000000" font-family="sans-serif" font-size="14" lengthAdjust="spacing" textLength="70" x="2797" y="93.292">name : str</text><ellipse cx="2788" cy="106.2422" fill="none" rx="3" ry="3" style="stroke:#038048;stroke-width:1.0;"/><text fill="#000000" font-family="sans-serif" font-size="14" lengthAdjust="spacing" textLength="58" x="2797" y="109.5889">size : int</text><ellipse cx="2788" cy="122.5391" fill="none" rx="3" ry="3" style="stroke:#038048;stroke-width:1.0;"/><text fill="#000000" font-family="sans-serif" font-size="14" lengthAdjust="spacing" textLength="83" x="2797" y="125.8857">lower : array</text><ellipse cx="2788" cy="138.8359" fill="none" rx="3" ry="3" style="stroke:#038048;stroke-width:1.0;"/><text fill="#000000" font-family="sans-serif" font-size="14" lengthAdjust="spacing" textLength="87" x="2797" y="142.1826">upper : array</text><ellipse cx="2788" cy="155.1328" fill="none" rx="3" ry="3" style="stroke:#038048;stroke-width:1.0;"/><text fill="#000000" font-family="sans-serif" font-size="14" lengthAdjust="spacing" textLength="188" x="2797" y="158.4795">linearities : Dict&lt;str, array&gt;</text><line style="stroke:#181818;stroke-width:0.5;" x1="2778" x2="3113" y1="165.7813" y2="165.7813"/><ellipse cx="2788" cy="179.4297" fill="#84BE84" rx="3" ry="3" style="stroke:#038048;stroke-width:1.0;"/><text fill="#000000" font-family="sans-serif" font-size="14" lengthAdjust="spacing" textLength="311" x="2797" y="182.7764">evaluate(inputs, traj_state, error_state) : array</text></g><g id="elem_GMN3"><path d="M5616.5,250.2969 L5616.5,578.0859 L5944.5,578.0859 L5944.5,260.2969 L5934.5,250.2969 L5616.5,250.2969 " fill="#FEFFDD" style="stroke:#181818;stroke-width:0.5;"/><path d="M5934.5,250.2969 L5934.5,260.2969 L5944.5,260.2969 L5934.5,250.2969 " fill="#FEFFDD" style="stroke:#181818;stroke-width:1.0;"/><text fill="#000000" font-family="sans-serif" font-size="13" lengthAdjust="spacing" textLength="182" x="5622.5" y="267.3638">error_state may be None for</text><text fill="#000000" font-family="sans-serif" font-size="13" lengthAdjust="spacing" textLength="260" x="5622.5" y="282.4966">DeterministicTOP - constraints that don't</text><text fill="#000000" font-family="sans-serif" font-size="13" lengthAdjust="spacing" textLength="185" x="5622.5" y="297.6294">use it (MatchPointConstraint,</text><text fill="#000000" font-family="sans-serif" font-size="13" lengthAdjust="spacing" textLength="286" x="5622.5" y="312.7622">FixedBoundaryConstraint, etc.) simply ignore</text><text fill="#000000" font-family="sans-serif" font-size="13" lengthAdjust="spacing" textLength="307" x="5622.5" y="327.895">the argument; ControlNormConstraint branches</text><text fill="#000000" font-family="sans-serif" font-size="13" lengthAdjust="spacing" textLength="139" x="5622.5" y="343.0278">on whether it is None.</text><text fill="#000000" font-family="sans-serif" font-size="13" lengthAdjust="spacing" textLength="4" x="5622.5" y="358.1606">&#160;</text><text fill="#000000" font-family="sans-serif" font-size="13" lengthAdjust="spacing" textLength="247" x="5622.5" y="373.2935">linearities defaults to {} - populated at</text><text fill="#000000" font-family="sans-serif" font-size="13" lengthAdjust="spacing" textLength="261" x="5622.5" y="388.4263">construction ONLY when the constraint is</text><text fill="#000000" font-family="sans-serif" font-size="13" lengthAdjust="spacing" textLength="273" x="5622.5" y="403.5591">fully linear (today: AdaptiveMeshConstraint</text><text fill="#000000" font-family="sans-serif" font-size="13" lengthAdjust="spacing" textLength="276" x="5622.5" y="418.6919">only). Its keys ARE the "wrt" variable names</text><text fill="#000000" font-family="sans-serif" font-size="13" lengthAdjust="spacing" textLength="268" x="5622.5" y="433.8247">and its values the corresponding constant</text><text fill="#000000" font-family="sans-serif" font-size="13" lengthAdjust="spacing" textLength="264" x="5622.5" y="448.9575">Jacobian blocks - no separate "wrt" field is</text><text fill="#000000" font-family="sans-serif" font-size="13" lengthAdjust="spacing" textLength="301" x="5622.5" y="464.0903">needed. See 09_optimization_adapter.puml for</text><text fill="#000000" font-family="sans-serif" font-size="13" lengthAdjust="spacing" textLength="203" x="5622.5" y="479.2231">how to_pyoptsparse() uses this.</text><text fill="#000000" font-family="sans-serif" font-size="13" lengthAdjust="spacing" textLength="4" x="5622.5" y="494.356">&#160;</text><text fill="#000000" font-family="sans-serif" font-size="13" lengthAdjust="spacing" textLength="276" x="5622.5" y="509.4888">Constraints do NOT contribute optimization</text><text fill="#000000" font-family="sans-serif" font-size="13" lengthAdjust="spacing" textLength="260" x="5622.5" y="524.6216">variables (no variables() method) - every</text><text fill="#000000" font-family="sans-serif" font-size="13" lengthAdjust="spacing" textLength="223" x="5622.5" y="539.7544">variable is declared in one place by</text><text fill="#000000" font-family="sans-serif" font-size="13" lengthAdjust="spacing" textLength="246" x="5622.5" y="554.8872">TOP.variables(), driven by problem_def</text><text fill="#000000" font-family="sans-serif" font-size="13" lengthAdjust="spacing" textLength="230" x="5622.5" y="570.02">toggles. See 01_top_overview.puml.</text></g><!--class FixedBoundaryConstraint--><g id="elem_FixedBoundaryConstraint"><rect codeLine="37" fill="#F1F1F1" height="80.5938" id="FixedBoundaryConstraint" rx="2.5" ry="2.5" style="stroke:#181818;stroke-width:0.5;" width="337" x="7" y="373.7969"/><ellipse cx="84.75" cy="389.7969" fill="#ADD1B2" rx="11" ry="11" style="stroke:#181818;stroke-width:1.0;"/><path d="M87.7188,395.4375 Q87.1406,395.7344 86.5,395.875 Q85.8594,396.0313 85.1563,396.0313 Q82.6563,396.0313 81.3281,394.3906 Q80.0156,392.7344 80.0156,389.6094 Q80.0156,386.4844 81.3281,384.8281 Q82.6563,383.1719 85.1563,383.1719 Q85.8594,383.1719 86.5,383.3281 Q87.1563,383.4844 87.7188,383.7813 L87.7188,386.5 Q87.0938,385.9219 86.5,385.6563 Q85.9063,385.375 85.2813,385.375 Q83.9375,385.375 83.25,386.4531 Q82.5625,387.5156 82.5625,389.6094 Q82.5625,391.7031 83.25,392.7813 Q83.9375,393.8438 85.2813,393.8438 Q85.9063,393.8438 86.5,393.5781 Q87.0938,393.2969 87.7188,392.7188 L87.7188,395.4375 Z " fill="#000000"/><text fill="#000000" font-family="sans-serif" font-size="14" lengthAdjust="spacing" textLength="173" x="105.25" y="394.6436">FixedBoundaryConstraint</text><line style="stroke:#181818;stroke-width:0.5;" x1="8" x2="343" y1="405.7969" y2="405.7969"/><rect fill="none" height="6" style="stroke:#C82930;stroke-width:1.0;" width="6" x="15" y="416.4453"/><text fill="#000000" font-family="sans-serif" font-size="14" lengthAdjust="spacing" textLength="172" x="27" y="422.792">boundary : "initial" | "final"</text><line style="stroke:#181818;stroke-width:0.5;" x1="8" x2="343" y1="430.0938" y2="430.0938"/><ellipse cx="18" cy="443.7422" fill="#84BE84" rx="3" ry="3" style="stroke:#038048;stroke-width:1.0;"/><text fill="#000000" font-family="sans-serif" font-size="14" lengthAdjust="spacing" textLength="311" x="27" y="447.0889">evaluate(inputs, traj_state, error_state) : array</text></g><!--class FreeBoundaryConstraint--><g id="elem_FreeBoundaryConstraint"><rect codeLine="42" fill="#F1F1F1" height="96.8906" id="FreeBoundaryConstraint" rx="2.5" ry="2.5" style="stroke:#181818;stroke-width:0.5;" width="337" x="703" y="365.7969"/><ellipse cx="783.25" cy="381.7969" fill="#ADD1B2" rx="11" ry="11" style="stroke:#181818;stroke-width:1.0;"/><path d="M786.2188,387.4375 Q785.6406,387.7344 785,387.875 Q784.3594,388.0313 783.6563,388.0313 Q781.1563,388.0313 779.8281,386.3906 Q778.5156,384.7344 778.5156,381.6094 Q778.5156,378.4844 779.8281,376.8281 Q781.1563,375.1719 783.6563,375.1719 Q784.3594,375.1719 785,375.3281 Q785.6563,375.4844 786.2188,375.7813 L786.2188,378.5 Q785.5938,377.9219 785,377.6563 Q784.4063,377.375 783.7813,377.375 Q782.4375,377.375 781.75,378.4531 Q781.0625,379.5156 781.0625,381.6094 Q781.0625,383.7031 781.75,384.7813 Q782.4375,385.8438 783.7813,385.8438 Q784.4063,385.8438 785,385.5781 Q785.5938,385.2969 786.2188,384.7188 L786.2188,387.4375 Z " fill="#000000"/><text fill="#000000" font-family="sans-serif" font-size="14" lengthAdjust="spacing" textLength="168" x="803.75" y="386.6436">FreeBoundaryConstraint</text><line style="stroke:#181818;stroke-width:0.5;" x1="704" x2="1039" y1="397.7969" y2="397.7969"/><rect fill="none" height="6" style="stroke:#C82930;stroke-width:1.0;" width="6" x="711" y="408.4453"/><text fill="#000000" font-family="sans-serif" font-size="14" lengthAdjust="spacing" textLength="172" x="723" y="414.792">boundary : "initial" | "final"</text><rect fill="none" height="6" style="stroke:#C82930;stroke-width:1.0;" width="6" x="711" y="424.7422"/><text fill="#000000" font-family="sans-serif" font-size="14" lengthAdjust="spacing" textLength="238" x="723" y="431.0889">orbit_family : OrbitFamilyInterpolant</text><line style="stroke:#181818;stroke-width:0.5;" x1="704" x2="1039" y1="438.3906" y2="438.3906"/><ellipse cx="714" cy="452.0391" fill="#84BE84" rx="3" ry="3" style="stroke:#038048;stroke-width:1.0;"/><text fill="#000000" font-family="sans-serif" font-size="14" lengthAdjust="spacing" textLength="311" x="723" y="455.3857">evaluate(inputs, traj_state, error_state) : array</text></g><g id="elem_GMN8"><path d="M379,363.7969 L379,410.2969 L344.06,414.2969 L379,418.2969 L379,464.5938 A0,0 0 0 0 379,464.5938 L668,464.5938 A0,0 0 0 0 668,464.5938 L668,373.7969 L658,363.7969 L379,363.7969 A0,0 0 0 0 379,363.7969 " fill="#FEFFDD" style="stroke:#181818;stroke-width:0.5;"/><path d="M658,363.7969 L658,373.7969 L668,373.7969 L658,363.7969 " fill="#FEFFDD" style="stroke:#181818;stroke-width:0.5;"/><text fill="#000000" font-family="sans-serif" font-size="13" lengthAdjust="spacing" textLength="268" x="385" y="380.8638">c_X0 / c_Xf when phasing_type == "fixed".</text><text fill="#000000" font-family="sans-serif" font-size="13" lengthAdjust="spacing" textLength="233" x="385" y="395.9966">evaluate(): X0[:7] - [X_start, 1.0]  (or</text><text fill="#000000" font-family="sans-serif" font-size="13" lengthAdjust="spacing" textLength="227" x="385" y="411.1294">Xf[:6] - X_end for boundary="final").</text><text fill="#000000" font-family="sans-serif" font-size="13" lengthAdjust="spacing" textLength="258" x="385" y="426.2622">One instance per boundary (constructed</text><text fill="#000000" font-family="sans-serif" font-size="13" lengthAdjust="spacing" textLength="206" x="385" y="441.395">twice by build_problem(), not via</text><text fill="#000000" font-family="sans-serif" font-size="13" lengthAdjust="spacing" textLength="173" x="385" y="456.5278">subclassing per-boundary).</text></g><g id="elem_GMN11"><path d="M1075.5,341.2969 L1075.5,410.2969 L1040.26,414.2969 L1075.5,418.2969 L1075.5,487.4922 A0,0 0 0 0 1075.5,487.4922 L1361.5,487.4922 A0,0 0 0 0 1361.5,487.4922 L1361.5,351.2969 L1351.5,341.2969 L1075.5,341.2969 A0,0 0 0 0 1075.5,341.2969 " fill="#FEFFDD" style="stroke:#181818;stroke-width:0.5;"/><path d="M1351.5,341.2969 L1351.5,351.2969 L1361.5,351.2969 L1351.5,341.2969 " fill="#FEFFDD" style="stroke:#181818;stroke-width:0.5;"/><text fill="#000000" font-family="sans-serif" font-size="13" lengthAdjust="spacing" textLength="263" x="1081.5" y="358.3638">c_X0 / c_Xf when phasing_type == "free".</text><text fill="#000000" font-family="sans-serif" font-size="13" lengthAdjust="spacing" textLength="203" x="1081.5" y="373.4966">evaluate(): X0[:7] - [orbit_family</text><text fill="#000000" font-family="sans-serif" font-size="13" lengthAdjust="spacing" textLength="250" x="1081.5" y="388.6294">.evaluate(alpha), 1.0] (or analogous for</text><text fill="#000000" font-family="sans-serif" font-size="13" lengthAdjust="spacing" textLength="232" x="1081.5" y="403.7622">Xf/beta), reading "alpha"/"beta" from</text><text fill="#000000" font-family="sans-serif" font-size="13" lengthAdjust="spacing" textLength="265" x="1081.5" y="418.895">inputs. These variables (size/bounds from</text><text fill="#000000" font-family="sans-serif" font-size="13" lengthAdjust="spacing" textLength="264" x="1081.5" y="434.0278">the orbit_family interpolant + config.yaml</text><text fill="#000000" font-family="sans-serif" font-size="13" lengthAdjust="spacing" textLength="236" x="1081.5" y="449.1606">alpha/beta min/max) are declared by</text><text fill="#000000" font-family="sans-serif" font-size="13" lengthAdjust="spacing" textLength="248" x="1081.5" y="464.2935">TOP.variables() when phasing_type ==</text><text fill="#000000" font-family="sans-serif" font-size="13" lengthAdjust="spacing" textLength="182" x="1081.5" y="479.4263">"free", not by this constraint.</text></g><!--class MatchPointConstraint--><g id="elem_MatchPointConstraint"><rect codeLine="72" fill="#F1F1F1" height="64.2969" id="MatchPointConstraint" rx="2.5" ry="2.5" style="stroke:#181818;stroke-width:0.5;" width="337" x="1397" y="382.2969"/><ellipse cx="1487.25" cy="398.2969" fill="#ADD1B2" rx="11" ry="11" style="stroke:#181818;stroke-width:1.0;"/><path d="M1490.2188,403.9375 Q1489.6406,404.2344 1489,404.375 Q1488.3594,404.5313 1487.6563,404.5313 Q1485.1563,404.5313 1483.8281,402.8906 Q1482.5156,401.2344 1482.5156,398.1094 Q1482.5156,394.9844 1483.8281,393.3281 Q1485.1563,391.6719 1487.6563,391.6719 Q1488.3594,391.6719 1489,391.8281 Q1489.6563,391.9844 1490.2188,392.2813 L1490.2188,395 Q1489.5938,394.4219 1489,394.1563 Q1488.4063,393.875 1487.7813,393.875 Q1486.4375,393.875 1485.75,394.9531 Q1485.0625,396.0156 1485.0625,398.1094 Q1485.0625,400.2031 1485.75,401.2813 Q1486.4375,402.3438 1487.7813,402.3438 Q1488.4063,402.3438 1489,402.0781 Q1489.5938,401.7969 1490.2188,401.2188 L1490.2188,403.9375 Z " fill="#000000"/><text fill="#000000" font-family="sans-serif" font-size="14" lengthAdjust="spacing" textLength="148" x="1507.75" y="403.1436">MatchPointConstraint</text><line style="stroke:#181818;stroke-width:0.5;" x1="1398" x2="1733" y1="414.2969" y2="414.2969"/><line style="stroke:#181818;stroke-width:0.5;" x1="1398" x2="1733" y1="422.2969" y2="422.2969"/><ellipse cx="1408" cy="435.9453" fill="#84BE84" rx="3" ry="3" style="stroke:#038048;stroke-width:1.0;"/><text fill="#000000" font-family="sans-serif" font-size="14" lengthAdjust="spacing" textLength="311" x="1417" y="439.292">evaluate(inputs, traj_state, error_state) : array</text></g><g id="elem_GMN18"><path d="M1769,378.7969 L1769,410.2969 L1734.06,414.2969 L1769,418.2969 L1769,449.3281 A0,0 0 0 0 1769,449.3281 L2058,449.3281 A0,0 0 0 0 2058,449.3281 L2058,388.7969 L2048,378.7969 L1769,378.7969 A0,0 0 0 0 1769,378.7969 " fill="#FEFFDD" style="stroke:#181818;stroke-width:0.5;"/><path d="M2048,378.7969 L2048,388.7969 L2058,388.7969 L2048,378.7969 " fill="#FEFFDD" style="stroke:#181818;stroke-width:0.5;"/><text fill="#000000" font-family="sans-serif" font-size="13" lengthAdjust="spacing" textLength="210" x="1775" y="395.8638">c_X_mp - X_hst[indx_f[-1],-1,:7] -</text><text fill="#000000" font-family="sans-serif" font-size="13" lengthAdjust="spacing" textLength="219" x="1775" y="410.9966">X_hst[indx_b[-1],0,:7]. Identical for</text><text fill="#000000" font-family="sans-serif" font-size="13" lengthAdjust="spacing" textLength="268" x="1775" y="426.1294">DeterministicTOP and StochasticTOP; only</text><text fill="#000000" font-family="sans-serif" font-size="13" lengthAdjust="spacing" textLength="105" x="1775" y="441.2622">reads traj_state.</text></g><!--class ControlNormConstraint--><g id="elem_ControlNormConstraint"><rect codeLine="84" fill="#F1F1F1" height="64.2969" id="ControlNormConstraint" rx="2.5" ry="2.5" style="stroke:#181818;stroke-width:0.5;" width="337" x="2093" y="382.2969"/><ellipse cx="2178.25" cy="398.2969" fill="#ADD1B2" rx="11" ry="11" style="stroke:#181818;stroke-width:1.0;"/><path d="M2181.2188,403.9375 Q2180.6406,404.2344 2180,404.375 Q2179.3594,404.5313 2178.6563,404.5313 Q2176.1563,404.5313 2174.8281,402.8906 Q2173.5156,401.2344 2173.5156,398.1094 Q2173.5156,394.9844 2174.8281,393.3281 Q2176.1563,391.6719 2178.6563,391.6719 Q2179.3594,391.6719 2180,391.8281 Q2180.6563,391.9844 2181.2188,392.2813 L2181.2188,395 Q2180.5938,394.4219 2180,394.1563 Q2179.4063,393.875 2178.7813,393.875 Q2177.4375,393.875 2176.75,394.9531 Q2176.0625,396.0156 2176.0625,398.1094 Q2176.0625,400.2031 2176.75,401.2813 Q2177.4375,402.3438 2178.7813,402.3438 Q2179.4063,402.3438 2180,402.0781 Q2180.5938,401.7969 2181.2188,401.2188 L2181.2188,403.9375 Z " fill="#000000"/><text fill="#000000" font-family="sans-serif" font-size="14" lengthAdjust="spacing" textLength="158" x="2198.75" y="403.1436">ControlNormConstraint</text><line style="stroke:#181818;stroke-width:0.5;" x1="2094" x2="2429" y1="414.2969" y2="414.2969"/><line style="stroke:#181818;stroke-width:0.5;" x1="2094" x2="2429" y1="422.2969" y2="422.2969"/><ellipse cx="2104" cy="435.9453" fill="#84BE84" rx="3" ry="3" style="stroke:#038048;stroke-width:1.0;"/><text fill="#000000" font-family="sans-serif" font-size="14" lengthAdjust="spacing" textLength="311" x="2113" y="439.292">evaluate(inputs, traj_state, error_state) : array</text></g><g id="elem_GMN23"><path d="M2465,333.7969 L2465,410.2969 L2430.16,414.2969 L2465,418.2969 L2465,495.125 A0,0 0 0 0 2465,495.125 L2742,495.125 A0,0 0 0 0 2742,495.125 L2742,343.7969 L2732,333.7969 L2465,333.7969 A0,0 0 0 0 2465,333.7969 " fill="#FEFFDD" style="stroke:#181818;stroke-width:0.5;"/><path d="M2732,333.7969 L2732,343.7969 L2742,343.7969 L2732,333.7969 " fill="#FEFFDD" style="stroke:#181818;stroke-width:0.5;"/><text fill="#000000" font-family="sans-serif" font-size="13" lengthAdjust="spacing" textLength="234" x="2471" y="350.8638">c_Us. Always includes control_norms</text><text fill="#000000" font-family="sans-serif" font-size="13" lengthAdjust="spacing" textLength="167" x="2471" y="365.9966">(from inputs['U_arc_hst']).</text><text fill="#000000" font-family="sans-serif" font-size="13" lengthAdjust="spacing" textLength="239" x="2471" y="381.1294">If error_state is not None, additionally</text><text fill="#000000" font-family="sans-serif" font-size="13" lengthAdjust="spacing" textLength="155" x="2471" y="396.2622">adds control_max_eig =</text><text fill="#000000" font-family="sans-serif" font-size="13" lengthAdjust="spacing" textLength="256" x="2471" y="411.395">mx_tcm_bound * sqrt(mat_lmax_vmap(</text><text fill="#000000" font-family="sans-serif" font-size="13" lengthAdjust="spacing" textLength="248" x="2471" y="426.5278">error_state.P_U_arc_hst)) - this branch</text><text fill="#000000" font-family="sans-serif" font-size="13" lengthAdjust="spacing" textLength="219" x="2471" y="441.6606">is the only feedback-type-agnostic</text><text fill="#000000" font-family="sans-serif" font-size="13" lengthAdjust="spacing" textLength="237" x="2471" y="456.7935">"stochastic vs not" check left, and it's</text><text fill="#000000" font-family="sans-serif" font-size="13" lengthAdjust="spacing" textLength="231" x="2471" y="471.9263">just "do I have an error_state", not a</text><text fill="#000000" font-family="sans-serif" font-size="13" lengthAdjust="spacing" textLength="182" x="2471" y="487.0591">type check on the controller.</text></g><!--class CovarianceConstraint--><g id="elem_CovarianceConstraint"><rect codeLine="102" fill="#F1F1F1" height="64.2969" id="CovarianceConstraint" rx="2.5" ry="2.5" style="stroke:#181818;stroke-width:0.5;" width="337" x="2777" y="382.2969"/><ellipse cx="2867.75" cy="398.2969" fill="#ADD1B2" rx="11" ry="11" style="stroke:#181818;stroke-width:1.0;"/><path d="M2870.7188,403.9375 Q2870.1406,404.2344 2869.5,404.375 Q2868.8594,404.5313 2868.1563,404.5313 Q2865.6563,404.5313 2864.3281,402.8906 Q2863.0156,401.2344 2863.0156,398.1094 Q2863.0156,394.9844 2864.3281,393.3281 Q2865.6563,391.6719 2868.1563,391.6719 Q2868.8594,391.6719 2869.5,391.8281 Q2870.1563,391.9844 2870.7188,392.2813 L2870.7188,395 Q2870.0938,394.4219 2869.5,394.1563 Q2868.9063,393.875 2868.2813,393.875 Q2866.9375,393.875 2866.25,394.9531 Q2865.5625,396.0156 2865.5625,398.1094 Q2865.5625,400.2031 2866.25,401.2813 Q2866.9375,402.3438 2868.2813,402.3438 Q2868.9063,402.3438 2869.5,402.0781 Q2870.0938,401.7969 2870.7188,401.2188 L2870.7188,403.9375 Z " fill="#000000"/><text fill="#000000" font-family="sans-serif" font-size="14" lengthAdjust="spacing" textLength="147" x="2888.25" y="403.1436">CovarianceConstraint</text><line style="stroke:#181818;stroke-width:0.5;" x1="2778" x2="3113" y1="414.2969" y2="414.2969"/><line style="stroke:#181818;stroke-width:0.5;" x1="2778" x2="3113" y1="422.2969" y2="422.2969"/><ellipse cx="2788" cy="435.9453" fill="#84BE84" rx="3" ry="3" style="stroke:#038048;stroke-width:1.0;"/><text fill="#000000" font-family="sans-serif" font-size="14" lengthAdjust="spacing" textLength="311" x="2797" y="439.292">evaluate(inputs, traj_state, error_state) : array</text></g><g id="elem_GMN28"><path d="M3149,326.2969 L3149,410.2969 L3114.11,414.2969 L3149,418.2969 L3149,502.7578 A0,0 0 0 0 3149,502.7578 L3434,502.7578 A0,0 0 0 0 3434,502.7578 L3434,336.2969 L3424,326.2969 L3149,326.2969 A0,0 0 0 0 3149,326.2969 " fill="#FEFFDD" style="stroke:#181818;stroke-width:0.5;"/><path d="M3424,326.2969 L3424,336.2969 L3434,336.2969 L3424,326.2969 " fill="#FEFFDD" style="stroke:#181818;stroke-width:0.5;"/><text fill="#000000" font-family="sans-serif" font-size="13" lengthAdjust="spacing" textLength="256" x="3155" y="343.3638">c_P_Xf. Stochastic only (not constructed</text><text fill="#000000" font-family="sans-serif" font-size="13" lengthAdjust="spacing" textLength="140" x="3155" y="358.4966">for DeterministicTOP).</text><text fill="#000000" font-family="sans-serif" font-size="13" lengthAdjust="spacing" textLength="264" x="3155" y="373.6294">evaluate(): Af = propagator_dX0_e(Xf, ...)</text><text fill="#000000" font-family="sans-serif" font-size="13" lengthAdjust="spacing" textLength="193" x="3155" y="388.7622">(from traj_state/problem_def);</text><text fill="#000000" font-family="sans-serif" font-size="13" lengthAdjust="spacing" textLength="232" x="3155" y="403.895">S_Xf_targ_inv = S_XT_targ_inv @ Af;</text><text fill="#000000" font-family="sans-serif" font-size="13" lengthAdjust="spacing" textLength="212" x="3155" y="419.0278">log10(mat_lmax(S_Xf_targ_inv @</text><text fill="#000000" font-family="sans-serif" font-size="13" lengthAdjust="spacing" textLength="167" x="3155" y="434.1606">error_state.P_hst[-1,-1] @</text><text fill="#000000" font-family="sans-serif" font-size="13" lengthAdjust="spacing" textLength="154" x="3155" y="449.2935">S_Xf_targ_inv.T - I) + 1).</text><text fill="#000000" font-family="sans-serif" font-size="13" lengthAdjust="spacing" textLength="253" x="3155" y="464.4263">Pure function of (traj_state, error_state,</text><text fill="#000000" font-family="sans-serif" font-size="13" lengthAdjust="spacing" textLength="264" x="3155" y="479.5591">problem_def) - no reference to controller,</text><text fill="#000000" font-family="sans-serif" font-size="13" lengthAdjust="spacing" textLength="237" x="3155" y="494.6919">thanks to ErrorState standardization.</text></g><!--class AdaptiveMeshConstraint--><g id="elem_AdaptiveMeshConstraint"><rect codeLine="121" fill="#F1F1F1" height="64.2969" id="AdaptiveMeshConstraint" rx="2.5" ry="2.5" style="stroke:#181818;stroke-width:0.5;" width="337" x="3469" y="382.2969"/><ellipse cx="3549.25" cy="398.2969" fill="#ADD1B2" rx="11" ry="11" style="stroke:#181818;stroke-width:1.0;"/><path d="M3552.2188,403.9375 Q3551.6406,404.2344 3551,404.375 Q3550.3594,404.5313 3549.6563,404.5313 Q3547.1563,404.5313 3545.8281,402.8906 Q3544.5156,401.2344 3544.5156,398.1094 Q3544.5156,394.9844 3545.8281,393.3281 Q3547.1563,391.6719 3549.6563,391.6719 Q3550.3594,391.6719 3551,391.8281 Q3551.6563,391.9844 3552.2188,392.2813 L3552.2188,395 Q3551.5938,394.4219 3551,394.1563 Q3550.4063,393.875 3549.7813,393.875 Q3548.4375,393.875 3547.75,394.9531 Q3547.0625,396.0156 3547.0625,398.1094 Q3547.0625,400.2031 3547.75,401.2813 Q3548.4375,402.3438 3549.7813,402.3438 Q3550.4063,402.3438 3551,402.0781 Q3551.5938,401.7969 3552.2188,401.2188 L3552.2188,403.9375 Z " fill="#000000"/><text fill="#000000" font-family="sans-serif" font-size="14" lengthAdjust="spacing" textLength="168" x="3569.75" y="403.1436">AdaptiveMeshConstraint</text><line style="stroke:#181818;stroke-width:0.5;" x1="3470" x2="3805" y1="414.2969" y2="414.2969"/><line style="stroke:#181818;stroke-width:0.5;" x1="3470" x2="3805" y1="422.2969" y2="422.2969"/><ellipse cx="3480" cy="435.9453" fill="#84BE84" rx="3" ry="3" style="stroke:#038048;stroke-width:1.0;"/><text fill="#000000" font-family="sans-serif" font-size="14" lengthAdjust="spacing" textLength="311" x="3489" y="439.292">evaluate(inputs, traj_state, error_state) : array</text></g><g id="elem_GMN33"><path d="M3841.5,303.2969 L3841.5,410.2969 L3806.07,414.2969 L3841.5,418.2969 L3841.5,525.1563 A0,0 0 0 0 3841.5,525.1563 L4139.5,525.1563 A0,0 0 0 0 4139.5,525.1563 L4139.5,313.2969 L4129.5,303.2969 L3841.5,303.2969 A0,0 0 0 0 3841.5,303.2969 " fill="#FEFFDD" style="stroke:#181818;stroke-width:0.5;"/><path d="M4129.5,303.2969 L4129.5,313.2969 L4139.5,313.2969 L4129.5,303.2969 " fill="#FEFFDD" style="stroke:#181818;stroke-width:0.5;"/><text fill="#000000" font-family="sans-serif" font-size="13" lengthAdjust="spacing" textLength="246" x="3847.5" y="320.3638">Only constructed when mesh_type ==</text><text fill="#000000" font-family="sans-serif" font-size="13" lengthAdjust="spacing" textLength="242" x="3847.5" y="335.4966">"adaptive_fixedtof". "t_node_bound" is</text><text fill="#000000" font-family="sans-serif" font-size="13" lengthAdjust="spacing" textLength="222" x="3847.5" y="350.6294">declared by TOP.variables() for this</text><text fill="#000000" font-family="sans-serif" font-size="13" lengthAdjust="spacing" textLength="187" x="3847.5" y="365.7622">toggle, not by this constraint.</text><text fill="#000000" font-family="sans-serif" font-size="13" lengthAdjust="spacing" textLength="233" x="3847.5" y="380.895">linearities = {'t_node_bound': jac} is</text><text fill="#000000" font-family="sans-serif" font-size="13" lengthAdjust="spacing" textLength="231" x="3847.5" y="396.0278">populated at construction time from</text><text fill="#000000" font-family="sans-serif" font-size="13" lengthAdjust="spacing" textLength="259" x="3847.5" y="411.1606">adaptive_mesh_con_terms() (math.py) -</text><text fill="#000000" font-family="sans-serif" font-size="13" lengthAdjust="spacing" textLength="259" x="3847.5" y="426.2935">the constraint is fully linear, independent</text><text fill="#000000" font-family="sans-serif" font-size="13" lengthAdjust="spacing" textLength="59" x="3847.5" y="441.4263">of inputs.</text><text fill="#000000" font-family="sans-serif" font-size="13" lengthAdjust="spacing" textLength="277" x="3847.5" y="456.5591">Note: this toggle ALSO adds a J_mesh term</text><text fill="#000000" font-family="sans-serif" font-size="13" lengthAdjust="spacing" textLength="241" x="3847.5" y="471.6919">to the objective (1e-6 * rel_dt_err.T @</text><text fill="#000000" font-family="sans-serif" font-size="13" lengthAdjust="spacing" textLength="254" x="3847.5" y="486.8247">rel_dt_err) - a cross-cutting concern not</text><text fill="#000000" font-family="sans-serif" font-size="13" lengthAdjust="spacing" textLength="254" x="3847.5" y="501.9575">modeled by Constraint itself; objective()</text><text fill="#000000" font-family="sans-serif" font-size="13" lengthAdjust="spacing" textLength="257" x="3847.5" y="517.0903">checks problem_def.mesh_type directly.</text></g><!--class DetCollisionAvoidanceConstraint--><g id="elem_DetCollisionAvoidanceConstraint"><rect codeLine="143" fill="#F1F1F1" height="64.2969" id="DetCollisionAvoidanceConstraint" rx="2.5" ry="2.5" style="stroke:#181818;stroke-width:0.5;" width="337" x="4175" y="382.2969"/><ellipse cx="4227.25" cy="398.2969" fill="#ADD1B2" rx="11" ry="11" style="stroke:#181818;stroke-width:1.0;"/><path d="M4230.2188,403.9375 Q4229.6406,404.2344 4229,404.375 Q4228.3594,404.5313 4227.6563,404.5313 Q4225.1563,404.5313 4223.8281,402.8906 Q4222.5156,401.2344 4222.5156,398.1094 Q4222.5156,394.9844 4223.8281,393.3281 Q4225.1563,391.6719 4227.6563,391.6719 Q4228.3594,391.6719 4229,391.8281 Q4229.6563,391.9844 4230.2188,392.2813 L4230.2188,395 Q4229.5938,394.4219 4229,394.1563 Q4228.4063,393.875 4227.7813,393.875 Q4226.4375,393.875 4225.75,394.9531 Q4225.0625,396.0156 4225.0625,398.1094 Q4225.0625,400.2031 4225.75,401.2813 Q4226.4375,402.3438 4227.7813,402.3438 Q4228.4063,402.3438 4229,402.0781 Q4229.5938,401.7969 4230.2188,401.2188 L4230.2188,403.9375 Z " fill="#000000"/><text fill="#000000" font-family="sans-serif" font-size="14" lengthAdjust="spacing" textLength="224" x="4247.75" y="403.1436">DetCollisionAvoidanceConstraint</text><line style="stroke:#181818;stroke-width:0.5;" x1="4176" x2="4511" y1="414.2969" y2="414.2969"/><line style="stroke:#181818;stroke-width:0.5;" x1="4176" x2="4511" y1="422.2969" y2="422.2969"/><ellipse cx="4186" cy="435.9453" fill="#84BE84" rx="3" ry="3" style="stroke:#038048;stroke-width:1.0;"/><text fill="#000000" font-family="sans-serif" font-size="14" lengthAdjust="spacing" textLength="311" x="4195" y="439.292">evaluate(inputs, traj_state, error_state) : array</text></g><!--class StatCollisionAvoidanceConstraint--><g id="elem_StatCollisionAvoidanceConstraint"><rect codeLine="146" fill="#F1F1F1" height="64.2969" id="StatCollisionAvoidanceConstraint" rx="2.5" ry="2.5" style="stroke:#181818;stroke-width:0.5;" width="337" x="4897" y="382.2969"/><ellipse cx="4948.25" cy="398.2969" fill="#ADD1B2" rx="11" ry="11" style="stroke:#181818;stroke-width:1.0;"/><path d="M4951.2188,403.9375 Q4950.6406,404.2344 4950,404.375 Q4949.3594,404.5313 4948.6563,404.5313 Q4946.1563,404.5313 4944.8281,402.8906 Q4943.5156,401.2344 4943.5156,398.1094 Q4943.5156,394.9844 4944.8281,393.3281 Q4946.1563,391.6719 4948.6563,391.6719 Q4949.3594,391.6719 4950,391.8281 Q4950.6563,391.9844 4951.2188,392.2813 L4951.2188,395 Q4950.5938,394.4219 4950,394.1563 Q4949.4063,393.875 4948.7813,393.875 Q4947.4375,393.875 4946.75,394.9531 Q4946.0625,396.0156 4946.0625,398.1094 Q4946.0625,400.2031 4946.75,401.2813 Q4947.4375,402.3438 4948.7813,402.3438 Q4949.4063,402.3438 4950,402.0781 Q4950.5938,401.7969 4951.2188,401.2188 L4951.2188,403.9375 Z " fill="#000000"/><text fill="#000000" font-family="sans-serif" font-size="14" lengthAdjust="spacing" textLength="226" x="4968.75" y="403.1436">StatCollisionAvoidanceConstraint</text><line style="stroke:#181818;stroke-width:0.5;" x1="4898" x2="5233" y1="414.2969" y2="414.2969"/><line style="stroke:#181818;stroke-width:0.5;" x1="4898" x2="5233" y1="422.2969" y2="422.2969"/><ellipse cx="4908" cy="435.9453" fill="#84BE84" rx="3" ry="3" style="stroke:#038048;stroke-width:1.0;"/><text fill="#000000" font-family="sans-serif" font-size="14" lengthAdjust="spacing" textLength="311" x="4917" y="439.292">evaluate(inputs, traj_state, error_state) : array</text></g><g id="elem_GMN40"><path d="M4547,386.7969 L4547,410.2969 L4512.01,414.2969 L4547,418.2969 L4547,442.1953 A0,0 0 0 0 4547,442.1953 L4862,442.1953 A0,0 0 0 0 4862,442.1953 L4862,396.7969 L4852,386.7969 L4547,386.7969 A0,0 0 0 0 4547,386.7969 " fill="#FEFFDD" style="stroke:#181818;stroke-width:0.5;"/><path d="M4852,386.7969 L4852,396.7969 L4862,396.7969 L4852,386.7969 " fill="#FEFFDD" style="stroke:#181818;stroke-width:0.5;"/><text fill="#000000" font-family="sans-serif" font-size="13" lengthAdjust="spacing" textLength="294" x="4553" y="403.8638">c_det_col_avoid. col_avoid_vmap(X_node_hst,</text><text fill="#000000" font-family="sans-serif" font-size="13" lengthAdjust="spacing" textLength="233" x="4553" y="418.9966">problem_def) - only reads traj_state.</text><text fill="#000000" font-family="sans-serif" font-size="13" lengthAdjust="spacing" textLength="266" x="4553" y="434.1294">Constructed when det_col_avoid == true.</text></g><g id="elem_GMN43"><path d="M5269.5,295.7969 L5269.5,410.2969 L5234.25,414.2969 L5269.5,418.2969 L5269.5,532.7891 A0,0 0 0 0 5269.5,532.7891 L5581.5,532.7891 A0,0 0 0 0 5581.5,532.7891 L5581.5,305.7969 L5571.5,295.7969 L5269.5,295.7969 A0,0 0 0 0 5269.5,295.7969 " fill="#FEFFDD" style="stroke:#181818;stroke-width:0.5;"/><path d="M5571.5,295.7969 L5571.5,305.7969 L5581.5,305.7969 L5571.5,295.7969 " fill="#FEFFDD" style="stroke:#181818;stroke-width:0.5;"/><text fill="#000000" font-family="sans-serif" font-size="13" lengthAdjust="spacing" textLength="252" x="5275.5" y="312.8638">c_stat_col_avoid. stat_col_avoid_vmap(</text><text fill="#000000" font-family="sans-serif" font-size="13" lengthAdjust="spacing" textLength="291" x="5275.5" y="327.9966">X_node_hst, P_node_hst, problem_def) where</text><text fill="#000000" font-family="sans-serif" font-size="13" lengthAdjust="spacing" textLength="203" x="5275.5" y="343.1294">P_node_hst is built directly from</text><text fill="#000000" font-family="sans-serif" font-size="13" lengthAdjust="spacing" textLength="202" x="5275.5" y="358.2622">error_state.P_hst at each node.</text><text fill="#000000" font-family="sans-serif" font-size="13" lengthAdjust="spacing" textLength="266" x="5275.5" y="373.395">Constructed when stat_col_avoid == true</text><text fill="#000000" font-family="sans-serif" font-size="13" lengthAdjust="spacing" textLength="109" x="5275.5" y="388.5278">(stochastic only).</text><text fill="#000000" font-family="sans-serif" font-size="13" lengthAdjust="spacing" textLength="4" x="5275.5" y="403.6606">&#160;</text><text fill="#000000" font-family="sans-serif" font-size="13" lengthAdjust="spacing" textLength="281" x="5275.5" y="418.7935">Note: this is a CORRECTNESS FIX vs. current</text><text fill="#000000" font-family="sans-serif" font-size="13" lengthAdjust="spacing" textLength="237" x="5275.5" y="433.9263">code - today P_node_hst is built from</text><text fill="#000000" font-family="sans-serif" font-size="13" lengthAdjust="spacing" textLength="240" x="5275.5" y="449.0591">P_hst which only exists for true_state;</text><text fill="#000000" font-family="sans-serif" font-size="13" lengthAdjust="spacing" textLength="235" x="5275.5" y="464.1919">estimated_state silently breaks. With</text><text fill="#000000" font-family="sans-serif" font-size="13" lengthAdjust="spacing" textLength="271" x="5275.5" y="479.3247">ErrorState standardized, error_state.P_hst</text><text fill="#000000" font-family="sans-serif" font-size="13" lengthAdjust="spacing" textLength="208" x="5275.5" y="494.4575">exists identically for both, so this</text><text fill="#000000" font-family="sans-serif" font-size="13" lengthAdjust="spacing" textLength="259" x="5275.5" y="509.5903">constraint works for either controller with</text><text fill="#000000" font-family="sans-serif" font-size="13" lengthAdjust="spacing" textLength="114" x="5275.5" y="524.7231">no special-casing.</text></g><!--link Constraint to GMN3--><g id="link_Constraint_GMN3"><path d="M3114.1,120.1369 C3662.09,127.0269 5370.82,155.9169 5599.5,250.2969 C5605.17,252.6369 5610.77,255.2369 5616.31,258.0469 " fill="none" id="Constraint-GMN3" style="stroke:#181818;stroke-width:1.0;stroke-dasharray:7.0,7.0;"/></g><!--reverse link Constraint to FixedBoundaryConstraint--><g id="link_Constraint_FixedBoundaryConstraint"><path codeLine="69" d="M2758.712,120.7726 C2220.322,128.7226 584.07,160.0269 361.5,250.2969 C297.24,276.3569 240.03,334.4069 206.56,373.7169 " fill="none" id="Constraint-backto-FixedBoundaryConstraint" style="stroke:#181818;stroke-width:1.0;"/><polygon fill="none" points="2776.71,120.5069,2758.6234,114.7733,2758.8005,126.772,2776.71,120.5069" style="stroke:#181818;stroke-width:1.0;"/></g><!--reverse link Constraint to FreeBoundaryConstraint--><g id="link_Constraint_FreeBoundaryConstraint"><path codeLine="70" d="M2758.6413,124.585 C2325.1013,139.965 1213.85,185.1669 1057.5,250.2969 C997.85,275.1469 944.05,327.1169 909.84,365.7269 " fill="none" id="Constraint-backto-FreeBoundaryConstraint" style="stroke:#181818;stroke-width:1.0;"/><polygon fill="none" points="2776.63,123.9469,2758.4286,118.5888,2758.854,130.5813,2776.63,123.9469" style="stroke:#181818;stroke-width:1.0;"/></g><!--reverse link Constraint to MatchPointConstraint--><g id="link_Constraint_MatchPointConstraint"><path codeLine="75" d="M2758.9374,125.2981 C2474.6274,137.8081 1931.21,171.1469 1751.5,250.2969 C1683.72,280.1469 1622.83,343.7769 1590.32,382.1169 " fill="none" id="Constraint-backto-MatchPointConstraint" style="stroke:#181818;stroke-width:1.0;"/><polygon fill="none" points="2776.92,124.5069,2758.6736,119.3039,2759.2012,131.2923,2776.92,124.5069" style="stroke:#181818;stroke-width:1.0;"/></g><!--reverse link Constraint to ControlNormConstraint--><g id="link_Constraint_ControlNormConstraint"><path codeLine="87" d="M2759.2506,146.4611 C2659.2806,165.8911 2550.13,195.6369 2447.5,250.2969 C2383.07,284.6069 2322.19,345.2269 2288.56,382.0869 " fill="none" id="Constraint-backto-ControlNormConstraint" style="stroke:#181818;stroke-width:1.0;"/><polygon fill="none" points="2776.92,143.0269,2758.1059,140.5713,2760.3954,152.3508,2776.92,143.0269" style="stroke:#181818;stroke-width:1.0;"/></g><!--reverse link Constraint to CovarianceConstraint--><g id="link_Constraint_CovarianceConstraint"><path codeLine="105" d="M2945.5,208.4669 C2945.5,269.8669 2945.5,337.0869 2945.5,382.2769 " fill="none" id="Constraint-backto-CovarianceConstraint" style="stroke:#181818;stroke-width:1.0;"/><polygon fill="none" points="2945.5,190.4669,2939.5,208.4669,2951.5,208.4669,2945.5,190.4669" style="stroke:#181818;stroke-width:1.0;"/></g><!--reverse link Constraint to AdaptiveMeshConstraint--><g id="link_Constraint_AdaptiveMeshConstraint"><path codeLine="124" d="M3131.8395,145.4156 C3233.8195,164.6056 3346.32,194.5469 3451.5,250.2969 C3515.99,284.4769 3576.85,345.1469 3610.47,382.0469 " fill="none" id="Constraint-backto-AdaptiveMeshConstraint" style="stroke:#181818;stroke-width:1.0;"/><polygon fill="none" points="3114.15,142.0869,3130.73,151.3121,3132.9491,139.5191,3114.15,142.0869" style="stroke:#181818;stroke-width:1.0;"/></g><!--reverse link Constraint to DetCollisionAvoidanceConstraint--><g id="link_Constraint_DetCollisionAvoidanceConstraint"><path codeLine="150" d="M3132.0241,124.9331 C3419.7841,137.0331 3974.5,169.8769 4157.5,250.2969 C4225.31,280.0969 4286.19,343.7469 4318.69,382.0969 " fill="none" id="Constraint-backto-DetCollisionAvoidanceConstraint" style="stroke:#181818;stroke-width:1.0;"/><polygon fill="none" points="3114.04,124.1769,3131.772,130.9278,3132.2762,118.9384,3114.04,124.1769" style="stroke:#181818;stroke-width:1.0;"/></g><!--reverse link Constraint to StatCollisionAvoidanceConstraint--><g id="link_Constraint_StatCollisionAvoidanceConstraint"><path codeLine="151" d="M3132.0498,124.2417 C3572.8398,139.0617 4718.77,183.4969 4879.5,250.2969 C4948.09,278.8069 5008.92,343.2169 5041.15,381.9969 " fill="none" id="Constraint-backto-StatCollisionAvoidanceConstraint" style="stroke:#181818;stroke-width:1.0;"/><polygon fill="none" points="3114.06,123.6369,3131.8482,130.2383,3132.2514,118.2451,3114.06,123.6369" style="stroke:#181818;stroke-width:1.0;"/></g><!--SRC=[jLXjSzl64VwkNx73Bo8R4fA-f5CvwbXrxAaoYQInb2ax6W_c22p8im0SSdSWnJZ-xttsZY-WIDKTr_aa7R3OrsUVtQFNlcHwOshdhTArfn7zKxDLDfijZuxKH1vddh9IETSL-tH4z5sjAgPpmZCvEVsxdF1MJgLPiCLHMQkMyg1jcjq7fQvPMUqrEpp-KMV-1sWQHe6_YmJFLTagptrTDwrtGuBnZwdpU3GajjROU1Xir7u-EggDPveOxqr5fkZu38sTRwXIIvemNPkQgJ0ImO_isLQwrixhxFxc5hd8DbyxyZFbAJVriMXg7PFsrFz5-MnsQo2mDJJ4-tVwYVD_cBREbLrsNX7xB1cGqrLJBabFQsCPudx6Y63QLbpxL-ApjwQyDhRgf7nYLPtDs47SrBIOCJwoueHs8Oha26-wISsvK6qfdXlwz1dHDAPfIyIUav8OOd1jvZNqtLp__6zHMWTVjd53EqIBjeIxKJdrlSdLyfmkSzLuFUTVsCrsqcpgSZb8w0gc7tdfwFBzsw2rjx2-HtFufoP0dS17bAiwHnYEfDhiLlQjPTUOEjVrD7gZWkgVL6OcMjKqAKtsw11KRSXnewpKD1eeD9TvzBjcpZbFw8wPJl-M6lXRwT-LH9mgSPzjqhHLkKB0p2oGhBHPGj11f-F-G4ejJcaN4locWuZSqFNDlRZdhPwqSA1h0CBhK1truURc1AKLgcVo0VpdETjbHrRAcJCQpg9EkYR1PrEg3A0MCU0owIWQKcvH0kHZIOqrU5YbgBj0oaod45d5VfPwqwG6jkQQ5o7cv8YHU6cNewFOto-0DZJxQB9wZbxheKUyLcMF_g1UeMlyzzNjkh9icR_QyCZOYVPfeIfTYjID7D-5qrMD2ZUcZE3vFmZ5wkdC2v-ya2DfftHyIYVofuYDrCoK0tnJlsoOBYx4OtpRIuI8reuCpcby-d3-rmz0miDOh5kGn5bo-e6e7p0vBXxElvVNurJg1Q3IEYCNgnmCHEKDSA93dm0gGhMRlFKtZSwv06EX0vXeqkeoJrUe4IWXKffh1HdNJa9XfFkWQrE3GHSqpn9pi8J_MrxmwNz9IxUy44esKgg4gi4gNSWMc4ILPcfQj-hdSN4oOIyYbbMWabxufdVIa-UW2cigo4Ku97GFUkLkryfCEmd1kxMiqDCEuFGMO_ITa46XfybILQLGcrWBFX06oqcbdWO05cyR_51F7ymIn6AUOfbGFg6a3b5tAzDfeH_-68rU1EsUtE4QhfhqqAoBYy3NzDLpsuUqFyVOGPc0iBHgGelCd7_GTVwK5W-Zim_3qTamW4Ymi7qt2UzEvHMcL8wPgpDLlhG5o7YwyoP3FUAJLs70GLH0vJgnxZFguKd-pN9sKFtpf1qMagpz2iXVbWk54Qthh6npTd6OcJB5ObB91EqBx5SDyd3yQuhDK19v_26GpbMnirC1a09EsKQmn-MvbZceof0i7BVQqGWfwoa9hAkdr6TL6hgC_aBkD-lxbV9fAKBpIZNztSqjkKqtRWnaWeP6YDkHz7BS8AH4L63yJrJsE98c6YbiMr92QIMtAIZDWzCzmcwLFLB91GWuhYJ7ae2FhVFKmwY_efcQOqshkywisb4uCpHgL68sMvH4MsB9E82CqF4Wwpy76FlQzt5nG4PWSGkcJZgGZxdiIvoxaqHcqVDs6JpdySk2BcGrQTHKUVYUZqzJxe-B8IL9CjWWR1laIMUF6Ro2m1tyIJ4Ofwckvr26y_ts_1eMH0h4VtQw0Kv_zwFNUn0ICW0xW0Z2ontnv1wekXg0pSz2EBSjABjewxWf8tNz5qeYct_N-xYUMYxOienbBE9RJ0p3C57rOrZGtugMkz15CiF1mFbgZzp7pk75-zkXvuN5_Xb-Nbp_RmGk7QJ4UOPTVzOTPchrUHgs8c-ANa8z3zx9EN91BwxmdL6vDoW5WDBzctNtvU6uUpMwe4_7NLl7v_HHPP-ZnUurQVUIXEMUrtl0nlyG6CHIQGJnIa0uIvhb8CoTlUlKpcLg26hDkK65ELwTYlKoWiCrydqUGudXqUNFTpUHIHNz52oJM0tnHzgRVEHCtAB-6O- -1vzQBjFSfoWzOFqwJAtr0y6deimQvqPPw_tghfMnhIMFmit8K1bptm49BcjS5g-snlhInu7wN1V_oRRckROGBPVxO0Q1l44_Q8S4NywDphyL9qRrqb9_Zlwzjlb297loNtBjUSDzIRzmTyuUM2nJ9UyJslmR1-auGXxSTu2f0illhpJhAs-dbNUCo0QFj_popU2BSOhZOgth-UvvimTq8g3RplyxiS39yAlALa3QJguxVWF4THllJGLfUbRPZEJRW-7lkhQENoQPsvsPW_2BGQUBjVJjcvltxz- -kRz-UtT7xwx6s3zGfzRQI00PhCfE8p-n70nWvNVqTJ7Jy3HKZfymWbsaHBWJGvB1oF2d4ZfRBMbEbp25BoOezYEC_qjxMPmEJY3EX_if4gNHcbulpvBGS3Frio4visRb3l4jZ7sCxh4Elrnj9o4jeWVoKqx36IxueonSVZgO-Wy0]--></g></svg>